<svg width="24" height="24" viewBox="0 0 24 24" fill="none" xmlns="http://www.w3.org/2000/svg">
<g id="close">
<mask id="mask0_298_7992" style="mask-type:alpha" maskUnits="userSpaceOnUse" x="0" y="0" width="24" height="24">
<rect id="Bounding box" width="24" height="24" fill="#D9D9D9"/>
</mask>
<g mask="url(#mask0_298_7992)">
<path id="close_2" d="M11.9998 12.975L7.0998 17.875C6.91647 18.0583 6.68314 18.15 6.3998 18.15C6.11647 18.15 5.88314 18.0583 5.6998 17.875C5.51647 17.6917 5.4248 17.4583 5.4248 17.175C5.4248 16.8917 5.51647 16.6583 5.6998 16.475L10.5998 11.575L5.6998 6.675C5.51647 6.49167 5.4248 6.25833 5.4248 5.975C5.4248 5.69167 5.51647 5.45833 5.6998 5.275C5.88314 5.09167 6.11647 5 6.3998 5C6.68314 5 6.91647 5.09167 7.0998 5.275L11.9998 10.175L16.8998 5.275C17.0831 5.09167 17.3165 5 17.5998 5C17.8831 5 18.1165 5.09167 18.2998 5.275C18.4831 5.45833 18.5748 5.69167 18.5748 5.975C18.5748 6.25833 18.4831 6.49167 18.2998 6.675L13.3998 11.575L18.2998 16.475C18.4831 16.6583 18.5748 16.8917 18.5748 17.175C18.5748 17.4583 18.4831 17.6917 18.2998 17.875C18.1165 18.0583 17.8831 18.15 17.5998 18.15C17.3165 18.15 17.0831 18.0583 16.8998 17.875L11.9998 12.975Z" fill="#1C1B1F"/>
</g>
</g>
</svg>
