<svg width="96" height="97" viewBox="0 0 96 97" fill="none" xmlns="http://www.w3.org/2000/svg">
<g id="headset_mic">
<mask id="mask0_298_8203" style="mask-type:alpha" maskUnits="userSpaceOnUse" x="0" y="0" width="96" height="97">
<rect id="Bounding box" y="0.666016" width="96" height="96" fill="#D9D9D9"/>
</mask>
<g mask="url(#mask0_298_8203)">
<path id="headset_mic_2" d="M18 81.2664C16.4 81.2664 15 80.6664 13.8 79.4664C12.6 78.2664 12 76.8664 12 75.2664V44.8664C12 39.8842 12.95 35.1882 14.85 30.7783C16.75 26.3684 19.3333 22.5139 22.6 19.2149C25.8667 15.9159 29.7068 13.3164 34.1204 11.4164C38.5341 9.51641 43.2341 8.56641 48.2204 8.56641C53.2068 8.56641 57.8833 9.51641 62.25 11.4164C66.6167 13.3164 70.4017 15.9159 73.6052 19.2149C76.8086 22.5139 79.3419 26.3684 81.2052 30.7783C83.0684 35.1882 84 39.8842 84 44.8664V86.6664C84 88.2664 83.4 89.6664 82.2 90.8664C81 92.0664 79.6 92.6664 78 92.6664H51.2C50.35 92.6664 49.6375 92.3772 49.0625 91.7989C48.4875 91.2205 48.2 90.5038 48.2 89.6489C48.2 88.7939 48.4875 88.0831 49.0625 87.5164C49.6375 86.9497 50.35 86.6664 51.2 86.6664H78V81.2664H69.2C67.55 81.2664 66.1375 80.6789 64.9625 79.5039C63.7875 78.3289 63.2 76.9164 63.2 75.2664V57.6664C63.2 56.0164 63.7875 54.6039 64.9625 53.4289C66.1375 52.2539 67.55 51.6664 69.2 51.6664H78V44.8664C78 36.5997 75.1 29.4831 69.3 23.5164C63.5 17.5497 56.4667 14.5664 48.2 14.5664C39.9333 14.5664 32.8333 17.5497 26.9 23.5164C20.9667 29.4831 18 36.5997 18 44.8664V51.6664H26.8C28.45 51.6664 29.8625 52.2539 31.0375 53.4289C32.2125 54.6039 32.8 56.0164 32.8 57.6664V75.2664C32.8 76.9164 32.2125 78.3289 31.0375 79.5039C29.8625 80.6789 28.45 81.2664 26.8 81.2664H18ZM18 75.2664H26.8V57.6664H18V75.2664ZM69.2 75.2664H78V57.6664H69.2V75.2664Z" fill="#3E0500"/>
</g>
</g>
</svg>
