<svg width="24" height="25" viewBox="0 0 24 25" fill="none" xmlns="http://www.w3.org/2000/svg">
<g id="Icon">
<mask id="mask0_354_3512" style="mask-type:alpha" maskUnits="userSpaceOnUse" x="0" y="0" width="24" height="25">
<rect id="Bounding box" y="0.666016" width="24" height="24" fill="#D9D9D9"/>
</mask>
<g mask="url(#mask0_354_3512)">
<path id="mail" d="M4 20.666C3.45 20.666 2.97917 20.4702 2.5875 20.0785C2.19583 19.6868 2 19.216 2 18.666V6.66602C2 6.11602 2.19583 5.64518 2.5875 5.25352C2.97917 4.86185 3.45 4.66602 4 4.66602H20C20.55 4.66602 21.0208 4.86185 21.4125 5.25352C21.8042 5.64518 22 6.11602 22 6.66602V18.666C22 19.216 21.8042 19.6868 21.4125 20.0785C21.0208 20.4702 20.55 20.666 20 20.666H4ZM12 13.666L4 8.66602V18.666H20V8.66602L12 13.666ZM12 11.666L20 6.66602H4L12 11.666ZM4 8.66602V6.66602V18.666V8.66602Z" fill="white"/>
</g>
</g>
</svg>
