<svg width="132" height="25" viewBox="0 0 132 25" fill="none" xmlns="http://www.w3.org/2000/svg">
<path d="M0.984375 23.666L5 0.916016H10.0938L6.76562 19.7129H16.1094L15.4219 23.666H0.984375ZM17.6719 19.1191C17.974 17.4421 18.8542 16.1608 20.3125 15.2754C21.7812 14.3796 23.5417 13.9264 25.5938 13.916H28.9844L29.1406 12.9941C29.2656 12.2962 29.1875 11.7441 28.9062 11.3379C28.6354 10.9212 28.0729 10.7129 27.2188 10.7129C26.3646 10.7129 25.7135 10.8848 25.2656 11.2285C24.8177 11.5723 24.5469 12.0202 24.4531 12.5723L24.4062 12.8535L19.7031 12.8379L19.75 12.541C20 11.0931 20.8802 9.91602 22.3906 9.00977C23.9115 8.0931 25.7917 7.63477 28.0312 7.63477C30.2812 7.63477 31.9323 8.07747 32.9844 8.96289C34.0365 9.83789 34.3958 11.2181 34.0625 13.1035L32.8281 20.1348C32.7135 20.7702 32.6615 21.3743 32.6719 21.9473C32.6823 22.5202 32.7552 23.015 32.8906 23.4316L32.8594 23.666H28C27.8958 23.416 27.8281 23.1087 27.7969 22.7441C27.776 22.3691 27.7812 21.9941 27.8125 21.6191C27.375 22.2129 26.6667 22.7493 25.6875 23.2285C24.7188 23.6973 23.5677 23.9316 22.2344 23.9316C20.651 23.9316 19.4219 23.5306 18.5469 22.7285C17.6823 21.916 17.3906 20.7129 17.6719 19.1191ZM22.6562 18.7129C22.5417 19.39 22.6406 19.9212 22.9531 20.3066C23.276 20.6921 23.8385 20.8848 24.6406 20.8848C25.4948 20.8848 26.276 20.5983 26.9844 20.0254C27.7031 19.4525 28.1302 18.7858 28.2656 18.0254L28.5312 16.6504H26.2344C25.151 16.6504 24.3125 16.8223 23.7188 17.166C23.1354 17.4993 22.7812 18.015 22.6562 18.7129ZM35.6875 23.666L38.4375 8.07227H43.2188L42.9531 9.97852H43.0156C43.526 9.30143 44.2292 8.75456 45.125 8.33789C46.0312 7.92122 47.026 7.71289 48.1094 7.71289C49.7135 7.71289 50.9375 8.16602 51.7812 9.07227C52.625 9.9681 52.8594 11.5098 52.4844 13.6973L50.7188 23.666H45.7812L47.4844 14.0098C47.651 13.0723 47.5677 12.4108 47.2344 12.0254C46.901 11.64 46.3698 11.4473 45.6406 11.4473C45.026 11.4473 44.4323 11.6243 43.8594 11.9785C43.2865 12.3327 42.8125 12.8223 42.4375 13.4473L40.625 23.666H35.6875ZM54.0938 23.666L56.8438 8.07227H61.8281L59.0781 23.666H54.0938ZM57.3438 3.29102C57.4688 2.56185 57.8177 1.95247 58.3906 1.46289C58.974 0.962891 59.724 0.712891 60.6406 0.712891C61.5469 0.712891 62.1979 0.962891 62.5938 1.46289C63 1.95247 63.1406 2.56185 63.0156 3.29102C62.8802 4.02018 62.5208 4.63997 61.9375 5.15039C61.3646 5.65039 60.6198 5.90039 59.7031 5.90039C58.7969 5.90039 58.1406 5.65039 57.7344 5.15039C57.3385 4.63997 57.2083 4.02018 57.3438 3.29102ZM62.6094 19.1191C62.9115 17.4421 63.7917 16.1608 65.25 15.2754C66.7188 14.3796 68.4792 13.9264 70.5312 13.916H73.9219L74.0781 12.9941C74.2031 12.2962 74.125 11.7441 73.8438 11.3379C73.5729 10.9212 73.0104 10.7129 72.1562 10.7129C71.3021 10.7129 70.651 10.8848 70.2031 11.2285C69.7552 11.5723 69.4844 12.0202 69.3906 12.5723L69.3438 12.8535L64.6406 12.8379L64.6875 12.541C64.9375 11.0931 65.8177 9.91602 67.3281 9.00977C68.849 8.0931 70.7292 7.63477 72.9688 7.63477C75.2188 7.63477 76.8698 8.07747 77.9219 8.96289C78.974 9.83789 79.3333 11.2181 79 13.1035L77.7656 20.1348C77.651 20.7702 77.599 21.3743 77.6094 21.9473C77.6198 22.5202 77.6927 23.015 77.8281 23.4316L77.7969 23.666H72.9375C72.8333 23.416 72.7656 23.1087 72.7344 22.7441C72.7135 22.3691 72.7188 21.9941 72.75 21.6191C72.3125 22.2129 71.6042 22.7493 70.625 23.2285C69.6562 23.6973 68.5052 23.9316 67.1719 23.9316C65.5885 23.9316 64.3594 23.5306 63.4844 22.7285C62.6198 21.916 62.3281 20.7129 62.6094 19.1191ZM67.5938 18.7129C67.4792 19.39 67.5781 19.9212 67.8906 20.3066C68.2135 20.6921 68.776 20.8848 69.5781 20.8848C70.4323 20.8848 71.2135 20.5983 71.9219 20.0254C72.6406 19.4525 73.0677 18.7858 73.2031 18.0254L73.4688 16.6504H71.1719C70.0885 16.6504 69.25 16.8223 68.6562 17.166C68.0729 17.4993 67.7188 18.015 67.5938 18.7129ZM80.625 23.666L84.7656 0.212891H89.7031L87.3438 13.5254L93.2812 8.05664H98.8125L86.375 19.1191L85.5625 23.666H80.625ZM91.1719 23.666L87.25 16.3379L90.75 12.916L96.7969 23.666H91.1719ZM98.0781 16.0879L98.1562 15.5879C98.5833 13.1712 99.6719 11.2389 101.422 9.79102C103.182 8.33268 105.271 7.60352 107.688 7.60352C110.083 7.60352 111.828 8.29622 112.922 9.68164C114.016 11.0566 114.349 12.9473 113.922 15.3535L113.688 16.9316H100.984L101.375 14.1504H109.266L109.312 13.9004C109.469 13.0983 109.359 12.4316 108.984 11.9004C108.609 11.3587 107.964 11.0879 107.047 11.0879C106.005 11.0879 105.146 11.4681 104.469 12.2285C103.792 12.9889 103.339 13.9837 103.109 15.2129L102.953 16.2441C102.714 17.5879 102.818 18.6452 103.266 19.416C103.714 20.1764 104.5 20.5566 105.625 20.5566C106.417 20.5566 107.125 20.3743 107.75 20.0098C108.385 19.6348 108.917 19.1868 109.344 18.666L112.828 20.3848C112.13 21.4993 111.12 22.4004 109.797 23.0879C108.474 23.765 106.896 24.1035 105.062 24.1035C102.427 24.1035 100.495 23.3796 99.2656 21.9316C98.0365 20.4733 97.6406 18.5254 98.0781 16.0879ZM114.984 19.1191C115.286 17.4421 116.167 16.1608 117.625 15.2754C119.094 14.3796 120.854 13.9264 122.906 13.916H126.297L126.453 12.9941C126.578 12.2962 126.5 11.7441 126.219 11.3379C125.948 10.9212 125.385 10.7129 124.531 10.7129C123.677 10.7129 123.026 10.8848 122.578 11.2285C122.13 11.5723 121.859 12.0202 121.766 12.5723L121.719 12.8535L117.016 12.8379L117.062 12.541C117.312 11.0931 118.193 9.91602 119.703 9.00977C121.224 8.0931 123.104 7.63477 125.344 7.63477C127.594 7.63477 129.245 8.07747 130.297 8.96289C131.349 9.83789 131.708 11.2181 131.375 13.1035L130.141 20.1348C130.026 20.7702 129.974 21.3743 129.984 21.9473C129.995 22.5202 130.068 23.015 130.203 23.4316L130.172 23.666H125.312C125.208 23.416 125.141 23.1087 125.109 22.7441C125.089 22.3691 125.094 21.9941 125.125 21.6191C124.688 22.2129 123.979 22.7493 123 23.2285C122.031 23.6973 120.88 23.9316 119.547 23.9316C117.964 23.9316 116.734 23.5306 115.859 22.7285C114.995 21.916 114.703 20.7129 114.984 19.1191ZM119.969 18.7129C119.854 19.39 119.953 19.9212 120.266 20.3066C120.589 20.6921 121.151 20.8848 121.953 20.8848C122.807 20.8848 123.589 20.5983 124.297 20.0254C125.016 19.4525 125.443 18.7858 125.578 18.0254L125.844 16.6504H123.547C122.464 16.6504 121.625 16.8223 121.031 17.166C120.448 17.4993 120.094 18.015 119.969 18.7129Z" fill="white"/>
</svg>
