<svg width="96" height="97" viewBox="0 0 96 97" fill="none" xmlns="http://www.w3.org/2000/svg">
<g id="local_mall">
<mask id="mask0_298_8196" style="mask-type:alpha" maskUnits="userSpaceOnUse" x="0" y="0" width="96" height="97">
<rect id="Bounding box" y="0.666016" width="96" height="96" fill="#D9D9D9"/>
</mask>
<g mask="url(#mask0_298_8196)">
<path id="local_mall_2" d="M18 88.666C16.35 88.666 14.9375 88.0785 13.7625 86.9035C12.5875 85.7285 12 84.316 12 82.666V29.666C12 28.016 12.5875 26.6035 13.7625 25.4285C14.9375 24.2535 16.35 23.666 18 23.666H29C29 18.466 30.7833 13.9993 34.35 10.266C37.9167 6.53268 42.3 4.66602 47.5 4.66602C52.895 4.66602 57.4938 6.49935 61.2963 10.166C65.0988 13.8327 67 18.3327 67 23.666H78C79.65 23.666 81.0625 24.2535 82.2375 25.4285C83.4125 26.6035 84 28.016 84 29.666V82.666C84 84.316 83.4125 85.7285 82.2375 86.9035C81.0625 88.0785 79.65 88.666 78 88.666H18ZM18 82.666H78V29.666H18V82.666ZM35 23.666H61C61 19.9993 59.75 16.916 57.25 14.416C54.75 11.916 51.6667 10.666 48 10.666C44.3333 10.666 41.25 11.916 38.75 14.416C36.25 16.916 35 19.9993 35 23.666ZM47.9724 53.666C52.8873 53.666 57.3373 51.9494 61.3224 48.516C65.3075 45.0827 67.3 41.2327 67.3 36.966C67.3 36.2327 67 35.5827 66.4 35.016C65.8 34.4493 65.0616 34.166 64.1849 34.166C63.4629 34.166 62.8182 34.416 62.2509 34.916C61.6836 35.416 61.3333 36.066 61.2 36.866C60.5333 39.9994 58.95 42.5827 56.45 44.616C53.95 46.6493 51.1333 47.666 48 47.666C44.8667 47.666 42.05 46.6493 39.55 44.616C37.05 42.5827 35.4667 39.9994 34.8 36.866C34.6667 36.066 34.3 35.416 33.7 34.916C33.1 34.416 32.4333 34.166 31.7 34.166C30.9 34.166 30.2 34.4493 29.6 35.016C29 35.5827 28.7 36.2327 28.7 36.966C28.7 41.2373 30.6833 45.0884 34.65 48.5195C38.6167 51.9505 43.0575 53.666 47.9724 53.666Z" fill="#3E0500"/>
</g>
</g>
</svg>
