<svg width="96" height="97" viewBox="0 0 96 97" fill="none" xmlns="http://www.w3.org/2000/svg">
<g id="voice_selection">
<mask id="mask0_298_8210" style="mask-type:alpha" maskUnits="userSpaceOnUse" x="0" y="0" width="96" height="97">
<rect id="Bounding box" y="0.666016" width="96" height="96" fill="#D9D9D9"/>
</mask>
<g mask="url(#mask0_298_8210)">
<path id="voice_selection_2" d="M73.6844 89.6664C72.8281 89.6664 72.1167 89.3789 71.55 88.8039C70.9833 88.2289 70.7 87.5164 70.7 86.6664C70.7 86.2664 70.7727 85.8632 70.9182 85.4569C71.0637 85.0506 71.2576 84.7204 71.5 84.4664C74.4333 81.5331 76.75 78.1164 78.45 74.2164C80.15 70.3164 81 66.1331 81 61.6664C81 57.187 80.15 53.0005 78.45 49.1068C76.75 45.2132 74.4333 41.7997 71.5 38.8664C71.2576 38.6128 71.0637 38.2831 70.9182 37.8773C70.7727 37.4715 70.7 37.0657 70.7 36.6599C70.7 35.7976 70.9875 35.0831 71.5625 34.5164C72.1375 33.9497 72.85 33.6664 73.7 33.6664C74.1 33.6664 74.4875 33.7539 74.8625 33.9289C75.2375 34.1039 75.55 34.3164 75.8 34.5664C79.2667 38.0331 82 42.0831 84 46.7164C86 51.3497 87 56.3167 87 61.6173C87 66.9834 86 71.9831 84 76.6164C82 81.2497 79.2667 85.2997 75.8 88.7664C75.5481 89.0164 75.2333 89.2289 74.8556 89.4039C74.4778 89.5789 74.0874 89.6664 73.6844 89.6664ZM62.3 78.2664C61.45 78.2664 60.7375 77.9789 60.1625 77.4039C59.5875 76.8289 59.3 76.1164 59.3 75.2664C59.3 74.8664 59.3875 74.4789 59.5625 74.1039C59.7375 73.7289 59.95 73.4164 60.2 73.1664C61.7333 71.633 62.9167 69.8958 63.75 67.9546C64.5833 66.0135 65 63.9134 65 61.6546C65 59.3958 64.5833 57.2997 63.75 55.3664C62.9167 53.4331 61.7333 51.6997 60.2 50.1664C59.9333 49.8997 59.7167 49.5789 59.55 49.2039C59.3833 48.8289 59.3 48.4414 59.3 48.0414C59.3 47.1914 59.5875 46.4831 60.1625 45.9164C60.7375 45.3497 61.45 45.0664 62.3 45.0664C62.7667 45.0664 63.1833 45.133 63.55 45.2664C63.9167 45.3997 64.2333 45.6331 64.5 45.9664C66.5 47.9664 68.0833 50.312 69.25 53.0031C70.4167 55.6942 71 58.5775 71 61.6531C71 64.7286 70.4167 67.6164 69.25 70.3164C68.0833 73.0164 66.5 75.3664 64.5 77.3664C64.2333 77.6997 63.9167 77.9331 63.55 78.0664C63.1833 78.1997 62.7667 78.2664 62.3 78.2664ZM8 88.7664V82.7664C11.3333 82.7664 14.6167 82.4664 17.85 81.8664C21.0833 81.2664 24.2667 80.3997 27.4 79.2664C24.1333 77.6664 21.4167 75.4664 19.25 72.6664C17.0833 69.8664 16 66.6664 16 63.0664V54.1664H32V41.1664H46.1L33.1 16.1664C32.7 15.4331 32.65 14.6664 32.95 13.8664C33.25 13.0664 33.7667 12.4831 34.5 12.1164C35.2333 11.7497 35.9833 11.6831 36.75 11.9164C37.5167 12.1497 38.1 12.6331 38.5 13.3664L51.5 38.4664C52.5667 40.4664 52.5187 42.4164 51.356 44.3164C50.1934 46.2164 48.4747 47.1664 46.2 47.1664H38V53.1664C38 55.0914 37.3146 56.7393 35.9438 58.1102C34.5729 59.481 32.925 60.1664 31 60.1664H22V63.0664C22 65.5997 22.7833 67.8497 24.35 69.8164C25.9167 71.7831 27.9333 73.0997 30.4 73.7664L31.6 74.0664C33.7867 74.6145 35.0167 75.9849 35.29 78.1775C35.5633 80.3701 34.7 82.0331 32.7 83.1664C28.9 85.2997 24.915 86.7664 20.7451 87.5664C16.5751 88.3664 12.3267 88.7664 8 88.7664Z" fill="#3E0500"/>
</g>
</g>
</svg>
